<?xml version="1.0" encoding="utf-8"?>
<!-- Generator: Adobe Illustrator 16.0.0, SVG Export Plug-In . SVG Version: 6.00 Build 0)  -->
<!DOCTYPE svg PUBLIC "-//W3C//DTD SVG 1.1 Tiny//EN" "http://www.w3.org/Graphics/SVG/1.1/DTD/svg11-tiny.dtd">
<svg version="1.1" baseProfile="tiny" id="Layer_1" xmlns="http://www.w3.org/2000/svg" xmlns:xlink="http://www.w3.org/1999/xlink"
	 x="0px" y="0px" width="200px" height="52px" viewBox="0 0 200 52" xml:space="preserve">
<g>
	<path fill="#FFFFFF" d="M82.204,25.506c0,0.457-0.352,0.831-1.056,1.125c-0.704,0.293-1.604,0.44-2.699,0.44H66.081v8.674h-4.66
		V13.885H78.45c1.095,0,1.995,0.145,2.699,0.433c0.704,0.289,1.056,0.661,1.056,1.118V25.506z M77.545,25.338v-9.735H66.081v9.735
		H77.545z"/>
	<path fill="#FFFFFF" d="M106.105,26.624h-4.392v-2.808l-8.213,0.112v11.816h-4.458v-13.59h4.458v0.377
		c1.475-0.093,2.96-0.191,4.458-0.293c1.788-0.111,3.273-0.167,4.459-0.167c2.458,0,3.688,0.508,3.688,1.522V26.624z"/>
	<path fill="#FFFFFF" d="M116.496,19.179h-4.525v-2.347h4.525V19.179z M116.43,35.744h-4.392v-13.59h4.392V35.744z"/>
	<path fill="#FFFFFF" d="M142.744,35.744h-4.459V23.816l-9.821,0.112v11.816h-4.459v-13.59h4.459v0.377
		c1.743-0.093,3.497-0.191,5.263-0.293c2.146-0.111,3.91-0.167,5.296-0.167c2.48,0,3.722,0.508,3.722,1.522V35.744z"/>
	<path fill="#FFFFFF" d="M161.683,35.744h-6.335c-2.503,0-3.755-0.526-3.755-1.578V23.788h-3.922v-1.634h3.922v-4.232h4.392v4.232
		h5.698v1.634h-5.698V34.11h5.698V35.744z"/>
	<path fill="#FFFFFF" d="M185.818,35.744h-4.392v-0.377c-1.766,0.103-3.531,0.2-5.297,0.293c-2.189,0.112-3.944,0.168-5.263,0.168
		c-2.436,0-3.653-0.503-3.653-1.509v-4.958c0-1.043,1.262-1.564,3.788-1.564h10.492v-4.093h-9.588v2.319h-4.324v-2.291
		c0-1.052,1.252-1.578,3.755-1.578h10.727c2.503,0,3.755,0.526,3.755,1.578V35.744z M181.494,34.054v-4.805h-9.956v4.889
		L181.494,34.054z"/>
</g>
<g>
</g>
<g>
	<g>
		<g id="print">
			<path fill="#FFFFFF" d="M49.525,12.784H13.559c-4.368,0-7.707,3.339-7.707,7.707v15.416h10.275v10.274h30.828V35.906h10.275
				V20.491C57.231,16.123,53.892,12.784,49.525,12.784z M41.817,41.043H21.266V28.196h20.551V41.043z M49.525,23.06
				c-1.542,0-2.57-1.027-2.57-2.569c0-1.541,1.027-2.57,2.57-2.57c1.54,0,2.568,1.029,2.568,2.57
				C52.094,22.032,51.065,23.06,49.525,23.06z M46.956-0.062H16.127v10.275h30.828V-0.062z"/>
		</g>
	</g>
	<g>
	</g>
	<g>
	</g>
	<g>
	</g>
	<g>
	</g>
	<g>
	</g>
	<g>
	</g>
	<g>
	</g>
	<g>
	</g>
	<g>
	</g>
	<g>
	</g>
	<g>
	</g>
	<g>
	</g>
	<g>
	</g>
	<g>
	</g>
	<g>
	</g>
</g>
<g>
</g>
<g>
</g>
<g>
</g>
<g>
</g>
<g>
</g>
<g>
</g>
<g>
</g>
<g>
</g>
<g>
</g>
<g>
</g>
<g>
</g>
<g>
</g>
<g>
</g>
<g>
</g>
<g>
</g>
</svg>
