<?xml version="1.0" encoding="utf-8"?>
<!-- Generator: Adobe Illustrator 16.0.0, SVG Export Plug-In . SVG Version: 6.00 Build 0)  -->
<!DOCTYPE svg PUBLIC "-//W3C//DTD SVG 1.1 Tiny//EN" "http://www.w3.org/Graphics/SVG/1.1/DTD/svg11-tiny.dtd">
<svg version="1.1" baseProfile="tiny" id="Layer_1" xmlns="http://www.w3.org/2000/svg" xmlns:xlink="http://www.w3.org/1999/xlink"
	 x="0px" y="0px" width="20px" height="5px" viewBox="0 0 20 5" xml:space="preserve">
<g>
	<polygon fill="#FFFFFF" stroke="#FFFFFF" stroke-miterlimit="10" points="3.156,6.563 2.022,6 0.916,6.615 1.101,5.362 0.174,4.5 
		1.422,4.289 1.956,3.141 2.542,4.263 3.799,4.416 2.913,5.32 	"/>
	<polygon fill="#FFFFFF" stroke="#FFFFFF" stroke-miterlimit="10" points="7.156,6.563 6.022,6 4.916,6.615 5.101,5.362 4.174,4.5 
		5.422,4.289 5.956,3.141 6.542,4.263 7.799,4.416 6.913,5.32 	"/>
	<polygon fill="#FFFFFF" stroke="#FFFFFF" stroke-miterlimit="10" points="11.156,6.563 10.022,6 8.916,6.615 9.101,5.362 
		8.174,4.5 9.422,4.289 9.956,3.141 10.542,4.263 11.799,4.416 10.913,5.32 	"/>
	<polygon fill="#FFFFFF" stroke="#FFFFFF" stroke-miterlimit="10" points="15.156,6.563 14.022,6 12.916,6.615 13.101,5.362 
		12.174,4.5 13.422,4.289 13.955,3.141 14.542,4.263 15.799,4.416 14.913,5.32 	"/>
	<polygon fill="#FFFFFF" stroke="#FFFFFF" stroke-miterlimit="10" points="20.156,6.563 19.022,6 17.916,6.615 18.101,5.362 
		17.174,4.5 18.422,4.289 18.955,3.141 19.542,4.263 20.799,4.416 19.913,5.32 	"/>
</g>
<g>
</g>
<g>
</g>
<g>
</g>
<g>
</g>
<g>
</g>
<g>
</g>
<g>
</g>
<g>
</g>
<g>
</g>
<g>
</g>
<g>
</g>
<g>
</g>
<g>
</g>
<g>
</g>
<g>
</g>
</svg>
